<svg width="224.1" height="150.6" xmlns="http://www.w3.org/2000/svg">
 <g display="inline">
  <title>cool dad</title>
  <path transform="rotate(-0.7957338690757751 107.52499389648543,90.50000000000001) " id="svg_63" d="m64.049988,101.300003l11.950012,-23.300003l65,1l10,22l-19,-9l-11,11l-9,-12l-13,11l-8,-10l-7,11l-6,-13l-13.950012,11.300003z" stroke-linecap="null" stroke-linejoin="null" stroke-width="5" stroke="null" fill="#7f3f00"/>
  <rect id="svg_76" height="1" width="15" y="73.300003" x="105.049987" stroke-linecap="null" stroke-linejoin="null" stroke-width="5" stroke="#000000" fill="#7f3f00"/>
  <line transform="rotate(-11.443881034851074 116.67820739746091,52.04285430908205) " id="svg_77" y2="74.470465" x2="115.178203" y1="29.615247" x1="118.178203" stroke-linecap="null" stroke-linejoin="null" stroke-width="5" stroke="#000000" fill="none"/>
  <rect transform="rotate(-22.61986541748047 82.54998779296878,19.30000305175781) " id="svg_74" height="12" width="31" y="13.300003" x="67.049988" stroke-linecap="null" stroke-linejoin="null" stroke-width="5" fill="#7f3f00"/>
  <rect transform="rotate(18.434947967529297 137.04998779296872,17.30000305175779) " id="svg_75" height="12" width="31" y="11.300003" x="121.549988" stroke-linecap="null" stroke-linejoin="null" stroke-width="5" fill="#7f3f00"/>
  <ellipse ry="4.5" rx="4.5" id="svg_72" cy="35.800003" cx="89.549988" stroke-linecap="null" stroke-linejoin="null" stroke-width="5" stroke="#000000" fill="#0000ff"/>
  <ellipse id="svg_73" ry="4.5" rx="4.5" cy="34.300003" cx="131.049988" stroke-linecap="null" stroke-linejoin="null" stroke-width="5" stroke="#000000" fill="#0000ff"/>
  <text transform="matrix(1,0,0,0.7749999761581421,0,1.1917970012873411) " xml:space="preserve" text-anchor="middle" font-family="Monospace" font-size="57" id="svg_78" y="64.429035" x="51.049988" stroke-linecap="null" stroke-linejoin="null" stroke="#000000" fill="#000000">C</text>
  <text id="svg_79" transform="matrix(0.9478189945220947,0,0,0.7345596981568576,8.186710562556982,2.1017032976239878) " xml:space="preserve" text-anchor="middle" font-family="Monospace" font-size="57" y="66.294498" x="168.675537" stroke-linecap="null" stroke-linejoin="null" stroke="#000000" fill="#000000">L</text>
  <text id="svg_80" transform="matrix(1.4749251525552032,0,0,0.789773246996313,-67.47252973071835,-3.448986301252509) " xml:space="preserve" text-anchor="middle" font-family="Monospace" font-size="57" y="167.675539" x="124.098478" stroke-linecap="null" stroke-linejoin="null" stroke="#000000" fill="#000000">DAD</text>
  <rect transform="rotate(-27.616806030273438 85.9344253540039,29.75097656250002) " id="svg_81" height="6.948522" width="17" y="26.276714" x="77.434424" stroke-linecap="null" stroke-linejoin="null" fill="#ffffff"/>
  <rect id="svg_83" transform="rotate(12.528807640075684 132.04998779296875,27.3000030517578) " height="6.948522" width="17" y="23.825742" x="123.549987" stroke-linecap="null" stroke-linejoin="null" fill="#ffffff"/>
  <ellipse id="svg_65" ry="13.5" rx="13.5" cy="36.300003" cx="89.049987" stroke-linecap="null" stroke-linejoin="null" stroke-width="5" stroke="#000000" fill="none"/>
  <ellipse id="svg_84" ry="13.5" rx="13.5" cy="34.300003" cx="131.049987" stroke-linecap="null" stroke-linejoin="null" stroke-width="5" stroke="#000000" fill="none"/>
 </g>
</svg>